# xmcd CD database file
#
# Track frame offsets:
#	150
#	10758
#	18727
#	24298
#	41285
#	57223
#	67460
#	79418
#	84493
#	88074
#	103892
#	127613
#	136426
#	141991
#	164526
#	167166
#	178047
#	193856
#	204785
#	213002
#	224254
#	229154
#	233860
#	249110
#	260407
#	285098
#
# Disc length: 4633 seconds
#
# Revision: 1
# Processed by: cddbd v1.5.1PL2 Copyright (c) Steve Scherf et al.
# Submitted via: CDex 1.50beta10
#
DISCID=6812171a
DTITLE=Unbekannter Künstler - Bar Revue - Bukowski Wait´s For You
DYEAR=2005
DGENRE=Blues
TTITLE0=Bar Revue - Bukowski ist tot
TTITLE1=Bar Revue - Down Down Down
TTITLE2=Bar Revue - Hab' ich Dir schon von dem erzählt
TTITLE3=Bar Revue - Alice
TTITLE4=Bar Revue - Where The Wild Roses Grow
TTITLE5=Bar Revue - Und er machte doch so einen netten Eindruck
TTITLE6=Bar Revue - Henry Lee
TTITLE7=Bar Revue - Es ist wie...
TTITLE8=Bar Revue - That's T%he Way...
TTITLE9=Bar Revue - The Briar And The Rose
TTITLE10=Bar Revue - Wir müssen miteinander reden
TTITLE11=Bar Revue - Laß mich bei dir sein
TTITLE12=Bar Revue - Bohnen mit Knoblauch
TTITLE13=Bar Revue - Here It Is
TTITLE14=Bar Revue - Hab' ich dir schon von dem erzählt ( 2 )
TTITLE15=Bar Revue - Suzanne
TTITLE16=Bar Revue - Invitation To The Blues
TTITLE17=Bar Revue - I'll Shoot The Moon
TTITLE18=Bar Revue - Die Traumfrau
TTITLE19=Bar Revue - Liebeslied
TTITLE20=Bar Revue - Hab' ich Dir schon von dem erzählt ( 3)
TTITLE21=Bar Revue - Arschloch
TTITLE22=Bar Revue - Downtown Train
TTITLE23=Bar Revue - Auf Trebe mit Jane
TTITLE24=Bar Revue - Somewhere
TTITLE25=Bar Revue - Bonus: Video
EXTD=YEAR: 2005
EXTT0=
EXTT1=
EXTT2=
EXTT3=
EXTT4=
EXTT5=
EXTT6=
EXTT7=
EXTT8=
EXTT9=
EXTT10=
EXTT11=
EXTT12=
EXTT13=
EXTT14=
EXTT15=
EXTT16=
EXTT17=
EXTT18=
EXTT19=
EXTT20=
EXTT21=
EXTT22=
EXTT23=
EXTT24=
EXTT25=
PLAYORDER=
